{
	"asset":{
		"version":"2.0",
		"generator":"Maxon Cinema 4D 2023.2.2 (#200000219)"
	},
	"scenes":[{
		"nodes":[0,
		1,
		2]
	}],
	"nodes":[{
		"name":"Can",
		"translation":[0.0,
		0.0,
		0.0],
		"rotation":[0.0,
		-0.21522803604602815,
		0.0,
		-0.9765638113021851],
		"scale":[1.0,
		1.0,
		1.0],
		"children":[3]
	},
	{
		"name":"Top lid",
		"translation":[-0.0009670144063420594,
		0.015229899436235428,
		0.0038152995985001327],
		"rotation":[0.0,
		0.0,
		0.0,
		-1.0],
		"scale":[1.0,
		1.0,
		1.0],
		"children":[4]
	},
	{
		"name":"Flip thing",
		"mesh":0,
		"translation":[0.05462183058261871,
		4.819381237030029,
		0.03133704513311386],
		"rotation":[-0.03548614680767059,
		0.0,
		0.0,
		-0.9993701577186585],
		"scale":[1.0,
		1.0,
		1.0]
	},
	{
		"name":"Can",
		"mesh":1
	},
	{
		"name":"Symmetry",
		"translation":[0.04324239119887352,
		4.8598785400390629,
		-0.0023430106230080129],
		"rotation":[0.0,
		0.0,
		0.0,
		-1.0],
		"scale":[1.0,
		1.0,
		1.0],
		"children":[5]
	},
	{
		"name":"Disc.1",
		"mesh":2,
		"translation":[-0.02119636721909046,
		-0.059109870344400409,
		0.0012187956599518657],
		"rotation":[0.0,
		0.0,
		0.0,
		-1.0],
		"scale":[1.0,
		1.0,
		1.0]
	}],
	"meshes":[{
		"name":"Flip thing",
		"primitives":[{
			"attributes":{
				"POSITION":1,
				"NORMAL":2,
				"TEXCOORD_0":3
			},
			"indices":0,
			"material":0
		}]
	},
	{
		"name":"Can",
		"primitives":[{
			"attributes":{
				"POSITION":5,
				"NORMAL":6,
				"TEXCOORD_0":7
			},
			"indices":4,
			"material":1
		}]
	},
	{
		"name":"Disc.1",
		"primitives":[{
			"attributes":{
				"POSITION":9,
				"NORMAL":10,
				"TEXCOORD_0":11
			},
			"indices":8,
			"material":0
		}]
	}],
	"accessors":[{
		"bufferView":0,
		"type":"SCALAR",
		"componentType":5123,
		"count":1077,
		"byteOffset":0,
		"min":[0],
		"max":[1076]
	},
	{
		"bufferView":1,
		"type":"VEC3",
		"componentType":5126,
		"count":1077,
		"byteOffset":0,
		"min":[-0.3180121183395386,
		-0.034809451550245288,
		-0.5277817249298096],
		"max":[0.31823503971099856,
		0.009361033327877522,
		0.5277817249298096]
	},
	{
		"bufferView":1,
		"type":"VEC3",
		"componentType":5126,
		"count":1077,
		"byteOffset":12,
		"min":[-0.9999997615814209,
		0.0,
		-0.9999990463256836],
		"max":[0.999995231628418,
		1.0,
		0.999980092048645]
	},
	{
		"bufferView":1,
		"type":"VEC2",
		"componentType":5126,
		"count":1077,
		"byteOffset":24,
		"min":[0.0,
		0.0],
		"max":[1.0,
		1.0]
	},
	{
		"bufferView":2,
		"type":"SCALAR",
		"componentType":5123,
		"count":52242,
		"byteOffset":0,
		"min":[0],
		"max":[52241]
	},
	{
		"bufferView":3,
		"type":"VEC3",
		"componentType":5126,
		"count":52242,
		"byteOffset":0,
		"min":[-1.3592617511749268,
		0.003785009030252695,
		-1.313061237335205],
		"max":[1.440170407295227,
		4.817803382873535,
		1.366485595703125]
	},
	{
		"bufferView":3,
		"type":"VEC3",
		"componentType":5126,
		"count":52242,
		"byteOffset":12,
		"min":[-1.0,
		-0.9980617165565491,
		-0.9999936819076538],
		"max":[1.0,
		0.983802855014801,
		0.9999936819076538]
	},
	{
		"bufferView":3,
		"type":"VEC2",
		"componentType":5126,
		"count":52242,
		"byteOffset":24,
		"min":[0.000044878175685880709,
		-0.025947868824005128],
		"max":[1.4077225923538209,
		1.0344085693359376]
	},
	{
		"bufferView":4,
		"type":"SCALAR",
		"componentType":5123,
		"count":13536,
		"byteOffset":0,
		"min":[0],
		"max":[13535]
	},
	{
		"bufferView":5,
		"type":"VEC3",
		"componentType":5126,
		"count":13536,
		"byteOffset":0,
		"min":[-1.071692943572998,
		-0.11535568535327912,
		-1.0053423643112183],
		"max":[1.099299430847168,
		9.99999993922529e-9,
		1.0772136449813843]
	},
	{
		"bufferView":5,
		"type":"VEC3",
		"componentType":5126,
		"count":13536,
		"byteOffset":12,
		"min":[-0.9995404481887817,
		0.0,
		-0.9998496174812317],
		"max":[0.9997231364250183,
		1.0,
		0.9999896287918091]
	},
	{
		"bufferView":5,
		"type":"VEC2",
		"componentType":5126,
		"count":13536,
		"byteOffset":24,
		"min":[0.020253513008356096,
		0.013850919902324677],
		"max":[0.6205622553825378,
		0.9861490726470947]
	}],
	"bufferViews":[{
		"buffer":0,
		"byteOffset":0,
		"byteLength":2154,
		"target":34963
	},
	{
		"buffer":0,
		"byteOffset":2156,
		"byteLength":34464,
		"target":34962,
		"byteStride":32
	},
	{
		"buffer":1,
		"byteOffset":0,
		"byteLength":104484,
		"target":34963
	},
	{
		"buffer":1,
		"byteOffset":104484,
		"byteLength":1671744,
		"target":34962,
		"byteStride":32
	},
	{
		"buffer":2,
		"byteOffset":0,
		"byteLength":27072,
		"target":34963
	},
	{
		"buffer":2,
		"byteOffset":27072,
		"byteLength":433152,
		"target":34962,
		"byteStride":32
	}],
	"buffers":[{
		"uri":"data:application/octet-stream;base64,",
		"byteLength":36620
	},
	{
		"uri":"data:application/octet-stream;base64,",
		"byteLength":1776228
	},
	{
		"uri":"data:application/octet-stream;base64,",
		"byteLength":460224
	}],
	"images":[{
		"uri":"data:image/jpeg;base64,"
	}],
	"samplers":[{
		"magFilter":9729,
		"minFilter":9729,
		"wrapS":10497,
		"wrapT":10497
	}],
	"textures":[{
		"sampler":0,
		"source":0
	}],
	"materials":[{
		"pbrMetallicRoughness":{
			"baseColorFactor":[0.8,
			0.8,
			0.8,
			1.0],
			"metallicFactor":0.5,
			"roughnessFactor":0.1
		},
		"emissiveFactor":[0.0,
		0.0,
		0.0],
		"alphaMode":"OPAQUE",
		"doubleSided":false,
		"name":"Mat"
	},
	{
		"pbrMetallicRoughness":{
			"baseColorTexture":{
				"index":0
			},
			"baseColorFactor":[1.0,
			1.0,
			1.0,
			1.0],
			"metallicFactor":0.0,
			"roughnessFactor":0.5
		},
		"emissiveFactor":[0.0,
		0.0,
		0.0],
		"alphaMode":"OPAQUE",
		"doubleSided":false,
		"name":"Can wrap"
	}]
}